<svg width="33" height="33" viewBox="0 0 33 33" fill="none" xmlns="http://www.w3.org/2000/svg">
<g id="basil:user-solid">
<path id="Vector" d="M16.5 5.15625C15.1325 5.15625 13.821 5.6995 12.854 6.66648C11.887 7.63347 11.3438 8.94498 11.3438 10.3125C11.3438 11.68 11.887 12.9915 12.854 13.9585C13.821 14.9255 15.1325 15.4688 16.5 15.4688C17.8675 15.4688 19.179 14.9255 20.146 13.9585C21.113 12.9915 21.6562 11.68 21.6562 10.3125C21.6562 8.94498 21.113 7.63347 20.146 6.66648C19.179 5.6995 17.8675 5.15625 16.5 5.15625ZM11 18.2188C9.63248 18.2188 8.32097 18.762 7.35398 19.729C6.387 20.696 5.84375 22.0075 5.84375 23.375V25.0085C5.84375 26.0452 6.5945 26.928 7.6175 27.0944C13.4997 28.0555 19.5002 28.0555 25.3825 27.0944C25.8776 27.0138 26.3279 26.7597 26.6529 26.3775C26.9778 25.9954 27.1562 25.5101 27.1562 25.0085V23.375C27.1562 22.0075 26.613 20.696 25.646 19.729C24.679 18.762 23.3675 18.2188 22 18.2188H21.5325C21.2781 18.2188 21.0251 18.26 20.7845 18.337L19.5938 18.7261C17.5834 19.3823 15.4166 19.3823 13.4062 18.7261L12.2155 18.337C11.9744 18.2585 11.7224 18.2186 11.4689 18.2188H11Z" fill="#4ECCA3"/>
</g>
</svg>
