<svg width="1606" height="483" viewBox="0 0 1606 483" fill="none" xmlns="http://www.w3.org/2000/svg">
<rect width="1606" height="483" fill="#3E7A65"/>
<path d="M1519.83 61.4118C1516.24 58.5627 1512.14 56.4469 1507.74 55.1852C1503.34 53.9234 1498.74 53.5405 1494.19 54.0582C1489.64 54.5759 1485.24 55.9841 1481.24 58.2024C1477.24 60.4207 1473.71 63.4056 1470.86 66.9868L1331 242.934L1282.11 181.414C1276.36 174.178 1267.97 169.523 1258.78 168.474C1249.6 167.424 1240.37 170.066 1233.14 175.818C1225.9 181.569 1221.25 189.96 1220.2 199.144C1219.15 208.327 1221.79 217.551 1227.54 224.787L1303.71 320.607C1310.32 328.928 1320.37 333.751 1330.99 333.751C1341.61 333.751 1351.64 328.872 1358.26 320.594L1525.43 110.36C1537.41 95.3078 1534.91 73.3841 1519.83 61.4118ZM1449.47 360.469H1212.53V123.531H1390.32L1423.56 81.7187H1191.63C1180.06 81.7187 1170.72 91.0569 1170.72 102.625V381.375C1170.72 392.915 1180.06 402.281 1191.63 402.281H1470.38C1475.92 402.281 1481.24 400.079 1485.16 396.158C1489.08 392.237 1491.28 386.92 1491.28 381.375V198.097L1449.47 250.697V360.469Z" fill="#181C22"/>
</svg>
