<svg width="29" height="29" viewBox="0 0 29 29" fill="none" xmlns="http://www.w3.org/2000/svg">
<path d="M6.04167 22.9584H7.73333L18.1552 12.5365L16.4635 10.8449L6.04167 21.2667V22.9584ZM23.3208 10.7845L18.1854 5.70946L19.8771 4.01779C20.3403 3.5546 20.9094 3.323 21.5845 3.323C22.2595 3.323 22.8282 3.5546 23.2906 4.01779L24.9823 5.70946C25.4455 6.17265 25.6872 6.73171 25.7073 7.38662C25.7274 8.04154 25.5059 8.60019 25.0427 9.06258L23.3208 10.7845ZM21.5688 12.5667L8.76042 25.3751H3.625V20.2397L16.4333 7.43133L21.5688 12.5667ZM17.3094 11.6907L16.4635 10.8449L18.1552 12.5365L17.3094 11.6907Z" fill="#181c22"/>
</svg>
