<svg width="50" height="50" viewBox="0 0 50 50" fill="none" xmlns="http://www.w3.org/2000/svg">
<rect width="50" height="50" rx="25" fill="#4ECCA3"/>
<path d="M17.0417 32.9584H18.7333L29.1552 22.5365L27.4635 20.8449L17.0417 31.2667V32.9584ZM34.3208 20.7845L29.1854 15.7095L30.8771 14.0178C31.3403 13.5546 31.9094 13.323 32.5845 13.323C33.2595 13.323 33.8282 13.5546 34.2906 14.0178L35.9823 15.7095C36.4455 16.1727 36.6872 16.7317 36.7073 17.3866C36.7274 18.0415 36.5059 18.6002 36.0427 19.0626L34.3208 20.7845ZM32.5688 22.5667L19.7604 35.3751H14.625V30.2397L27.4333 17.4313L32.5688 22.5667ZM28.3094 21.6907L27.4635 20.8449L29.1552 22.5365L28.3094 21.6907Z" fill="#181C22"/>
</svg>
