<svg width="103" height="48" viewBox="0 0 103 48" fill="none" xmlns="http://www.w3.org/2000/svg">
<path d="M8.704 29.624H15.552V35H1.6V12.344H8.704V29.624Z" fill="white"/>
<path d="M22.5875 31L16.8275 24.12L22.5875 17.208H31.4515L25.6915 24.12L31.4515 31H22.5875ZM57.7898 16.824C60.0938 16.824 61.8751 17.5173 63.1338 18.904C64.4138 20.2907 65.0538 22.168 65.0538 24.536V35H57.9818V25.432C57.9818 24.664 57.7471 24.0667 57.2778 23.64C56.8298 23.192 56.2218 22.968 55.4538 22.968C54.6644 22.968 54.0458 23.192 53.5978 23.64C53.1498 24.0667 52.9258 24.664 52.9258 25.432V35H45.8538V25.432C45.8538 24.664 45.6191 24.0667 45.1498 23.64C44.7018 23.192 44.0938 22.968 43.3258 22.968C42.5364 22.968 41.9178 23.192 41.4698 23.64C41.0218 24.0667 40.7978 24.664 40.7978 25.432V35H33.6938V16.952H40.7978V19.384C41.3098 18.616 42.0031 17.9973 42.8778 17.528C43.7738 17.0587 44.8191 16.824 46.0138 16.824C47.3151 16.824 48.4671 17.112 49.4698 17.688C50.4724 18.2427 51.2724 19.032 51.8698 20.056C52.5311 19.1173 53.3738 18.3493 54.3978 17.752C55.4218 17.1333 56.5524 16.824 57.7898 16.824ZM85.6033 25.816C85.6033 26.3067 85.5713 26.776 85.5073 27.224H74.0833C74.1899 28.7813 74.8406 29.56 76.0353 29.56C76.8033 29.56 77.3579 29.208 77.6993 28.504H85.2193C84.9633 29.784 84.4193 30.936 83.5873 31.96C82.7766 32.9627 81.7419 33.7627 80.4833 34.36C79.2459 34.936 77.8806 35.224 76.3873 35.224C74.5953 35.224 72.9953 34.8507 71.5873 34.104C70.2006 33.3573 69.1126 32.2907 68.3233 30.904C67.5553 29.496 67.1713 27.8533 67.1713 25.976C67.1713 24.0987 67.5553 22.4667 68.3233 21.08C69.1126 19.672 70.2006 18.5947 71.5873 17.848C72.9953 17.1013 74.5953 16.728 76.3873 16.728C78.1793 16.728 79.7686 17.1013 81.1553 17.848C82.5633 18.5733 83.6513 19.6187 84.4193 20.984C85.2086 22.3493 85.6033 23.96 85.6033 25.816ZM78.4033 24.12C78.4033 23.5227 78.2113 23.0747 77.8273 22.776C77.4433 22.456 76.9633 22.296 76.3873 22.296C75.1286 22.296 74.3926 22.904 74.1793 24.12H78.4033ZM86.89 17.208H95.754L101.514 24.12L95.754 31H86.89L92.65 24.12L86.89 17.208Z" fill="#4ECCA3"/>
<path d="M17.62 28.91C17.2333 28.91 16.9233 28.8067 16.69 28.6C16.4567 28.3933 16.34 28.1333 16.34 27.82C16.34 27.5 16.4567 27.2367 16.69 27.03C16.9233 26.8167 17.2333 26.71 17.62 26.71C18 26.71 18.3067 26.8167 18.54 27.03C18.7733 27.2367 18.89 27.5 18.89 27.82C18.89 28.1333 18.7733 28.3933 18.54 28.6C18.3067 28.8067 18 28.91 17.62 28.91ZM18.72 29.36V35H16.5V29.36H18.72ZM23.6727 29.32C24.3193 29.32 24.8227 29.5367 25.1827 29.97C25.5493 30.4033 25.7327 30.99 25.7327 31.73V35H23.5227V32.01C23.5227 31.7433 23.4493 31.5333 23.3027 31.38C23.1627 31.22 22.9727 31.14 22.7327 31.14C22.486 31.14 22.2927 31.22 22.1527 31.38C22.0127 31.5333 21.9427 31.7433 21.9427 32.01V35H19.7227V29.36H21.9427V30.22C22.116 29.9533 22.346 29.7367 22.6327 29.57C22.926 29.4033 23.2727 29.32 23.6727 29.32ZM30.3053 35L28.9153 32.75V35H26.6953V27.6H28.9153V31.47L30.3253 29.36H32.9053L30.7953 32.2L32.9553 35H30.3053Z" fill="white"/>
</svg>
