<svg width="48" height="48" viewBox="0 0 48 48" fill="none" xmlns="http://www.w3.org/2000/svg">
<path d="M24 19.7778C24.9805 19.7778 25.9515 19.5867 26.8574 19.2153C27.7633 18.844 28.5864 18.2997 29.2797 17.6136C29.9731 16.9275 30.5231 16.113 30.8983 15.2165C31.2735 14.32 31.4667 13.3592 31.4667 12.3889C31.4667 11.4186 31.2735 10.4577 30.8983 9.56128C30.5231 8.66482 29.9731 7.85028 29.2797 7.16416C28.5864 6.47803 27.7633 5.93377 26.8574 5.56245C25.9515 5.19112 24.9805 5 24 5C22.0197 5 20.1205 5.77847 18.7203 7.16416C17.32 8.54984 16.5333 10.4292 16.5333 12.3889C16.5333 14.3485 17.32 16.2279 18.7203 17.6136C20.1205 18.9993 22.0197 19.7778 24 19.7778ZM8 41.7333V43H40V41.7333C40 37.0044 40 34.64 39.0699 32.8329C38.2518 31.244 36.9464 29.9523 35.3408 29.1427C33.5147 28.2222 31.1253 28.2222 26.3467 28.2222H21.6533C16.8747 28.2222 14.4853 28.2222 12.6592 29.1427C11.0536 29.9523 9.74824 31.244 8.93013 32.8329C8 34.64 8 37.0044 8 41.7333Z" stroke="white" stroke-width="4" stroke-linecap="round" stroke-linejoin="round"/>
</svg>
