<svg width="50" height="50" viewBox="0 0 50 50" fill="none" xmlns="http://www.w3.org/2000/svg">
<path d="M19.5 8C16.9976 8 14.5976 8.98297 12.8281 10.7327C11.0586 12.4824 10.0645 14.8555 10.0645 17.3299C10.0645 19.8044 11.0586 22.1775 12.8281 23.9272C14.5976 25.6769 16.9976 26.6598 19.5 26.6598C22.0024 26.6598 24.4024 25.6769 26.1719 23.9272C27.9414 22.1775 28.9355 19.8044 28.9355 17.3299C28.9355 14.8555 27.9414 12.4824 26.1719 10.7327C24.4024 8.98297 22.0024 8 19.5 8ZM9.43548 31.6358C6.93304 31.6358 4.53309 32.6188 2.76359 34.3685C0.994093 36.1182 0 38.4913 0 40.9657V43.9214C0 45.7973 1.37381 47.3946 3.24581 47.6957C14.0098 49.4348 24.9902 49.4348 35.7542 47.6957C36.6602 47.5498 37.4842 47.09 38.0788 46.3986C38.6735 45.7071 39 44.8291 39 43.9214V40.9657C39 38.4913 38.0059 36.1182 36.2364 34.3685C34.4669 32.6188 32.067 31.6358 29.5645 31.6358H28.709C28.2435 31.6358 27.7806 31.7104 27.3403 31.8498L25.1613 32.5538C21.4826 33.7412 17.5174 33.7412 13.8387 32.5538L11.6597 31.8498C11.2185 31.7078 10.7575 31.6356 10.2935 31.6358H9.43548Z" fill="white"/>
</svg>
