<svg width="38" height="38" viewBox="0 0 38 38" fill="none" xmlns="http://www.w3.org/2000/svg">
<path d="M36.6138 30.0707L30.8227 24.3174L24.2197 30.8935L30.0108 36.6469C31.8153 38.4384 34.7561 38.4526 36.5783 36.6802C36.5896 36.6691 36.6009 36.658 36.6122 36.6469C38.4619 34.8284 38.4619 31.886 36.6138 30.0707Z" fill="white"/>
<path d="M28.4391 4.85364C21.8329 -1.61788 11.14 -1.61788 4.53224 4.85364C-1.66883 11.4028 -1.48483 21.5968 4.95027 27.9256C11.3854 34.2545 21.7635 34.4495 28.4391 28.368C35.0502 21.8758 35.0502 11.3473 28.4391 4.85364ZM21.7861 21.8346C18.8147 24.5044 14.2293 24.4045 11.3805 21.6079C8.53179 18.8113 8.42688 14.3088 11.1417 11.387C14.1131 8.7172 18.6985 8.81708 21.5473 11.6137C24.3976 14.4103 24.5025 18.9128 21.7861 21.8346Z" fill="white"/>
</svg>
